<svg id="Layer_1" data-name="Layer 1" xmlns="http://www.w3.org/2000/svg" viewBox="0 0 231.64 274.39"><defs><style>.cls-1{fill:#fff;stroke:#fff;stroke-miterlimit:10;stroke-width:2px;}</style></defs><title>TWS LOGO White</title><path class="cls-1" d="M90,70.26c6.17-9.49,24.92-4.91,59.79-3.15,6.95.35-3.56-.29,43.48.86,31.35.76,42.25,1.2,67.22,1.72,14.68.3,26.59.47,34,.57,3.51,0,12,.34,15.48,5.8.7,1.1,1.06,2.21,1.69,13.08.57,9.87.37,10.66,0,11.44-3.1,5.93-15.53,5.07-23.42,4.58-17.71-1.11-35.5-.73-53.21-2-35.83-2.58-41.72-1.89-45.48,2.58-2.82,3.35-2.14,6-2.29,28.6-.17,26.73-1.11,20.76-.86,36,.42,24.91,2.8,34-2.86,37.76-2.37,1.59-3.47.45-17.73.57s-15.5,1.27-17.75-.48c-3.1-2.44-2.63-6.19-1.79-33,.36-11.43.33-12.34.6-16.92.29-5,.58-9,1.49-21.13,1.09-14.51,1.32-17.3-.86-19.45s-4.39-1.53-14.9-1.33c-2.35,0-10.52-.2-26.86-.67-14.2-.41-15.39-.84-16.59-2-2.44-2.35-2.87-5.73-.86-29.47C89,75.56,89.4,71.18,90,70.26Z" transform="translate(-86.01 -63.45)"/><path class="cls-1" d="M207.42,114.52c14.66,1.43,29.57-.92,44.19.86,38.2,4.63,54.26-5.51,61.22,4.94,1.32,2,1.93,7.62,3.15,18.88,1.58,14.65.16,18.3-2.13,20.07s-5.11,1.51-6.74,1.38c-10.58-.82-21.23.89-31.83.45-18.37-.74-27.64-1-31,3.62-2.74,3.84-2.61,10.26.43,13.73,4.22,4.83,12.36,2.05,29.61.43,20.7-1.94,31.06-2.92,36.47,2.15,4.84,4.52,3.68,10.58,3,37.33-.12,5-.28,16.07-.32,38.24,0,17-.77,34-.54,51,.25,17.95.85,23.22-3.43,27-4.83,4.29-9.46,1-33.9.86-14.72-.09-19.78,1.06-23.19-2.91-1.53-1.78-1.69-3.37-1.69-19.41,0-15.6.14-17.85,2.14-20.16,4.55-5.26,10.57-1.53,14.59-6.44,3.55-4.33.63-9.39,0-26.17,0-.85,0-5.1.09-13.58.3-32.44,1.13-34.61-1.38-37.48-1.58-1.82-4.86-4.31-35.61-2.58-25.26,1.43-28.8,3.43-33,0-7.38-6-1-15.6-1.72-50.2-.41-21.27-3.17-36.08,4.72-40.76A11.24,11.24,0,0,1,207.42,114.52Z" transform="translate(-86.01 -63.45)"/><path class="cls-1" d="M95.28,125.07c1.28-.63,6.74-.36,17.6.2,11.53.6,17.32.93,18.59,2,5.59,4.59,4.27,18,3.43,44.77-.69,22.39.75-3.31-.57,62.91-.5,25.37-5.69,49.93-1.14,51.43a6.45,6.45,0,0,0,1.5.1c1.63.07,2.82.16,3.18.18,4,.19,4.84.7,5.58.45,3.94-1.29,1.63-22.32.32-35.22-2.42-23.86-2.19-27.5.43-30.25,3-3.09,5.74-1.7,25.6-2.87,14-.82,15.83-1.7,18.31.3,1.63,1.32,5.24,5.26,2.43,33.73-1.78,18.13-4.94,33.77-.86,35.62.92.41,1.4-.22,5.58-.23,5.13,0,5.87.93,7.08.46,4-1.58,3.75-14.89,1.72-39.48-1.23-14.85-1.87-18.85,1.07-22.23,3.82-4.38,10.76-4.35,20.81-4.31,8.21,0,12.31.05,14.8,2,6,4.75,3.11,14.45,1.94,43.1-.76,18.61-1.15,27.91-.43,37.89,1.12,15.79,3.17,19.78.21,24.27-4.89,7.43-16.38,5.47-40.33,4.09-10.56-.61-39.12-2.26-64.36-.91-31.63,1.69-37.49,7-44.63.91-10.17-8.67-4.2-24.43-3-72.6,1-39.29-.78-77.51-.78-77.51C88,153.89,85.48,130,95.28,125.07Z" transform="translate(-86.01 -63.45)"/></svg>